<svg width="19" height="19" viewBox="0 0 19 19" fill="none" xmlns="http://www.w3.org/2000/svg">
<path d="M1 5.25H18M4.4 13.75H7.8M11.2 13.75H14.6M3.72 18H15.28C16.2321 18 16.7081 18 17.0718 17.7684C17.3917 17.5647 17.6517 17.2396 17.8147 16.8397C18 16.3852 18 15.7901 18 14.6V4.4C18 3.20989 18 2.61483 17.8147 2.16027C17.6517 1.76043 17.3917 1.43534 17.0718 1.23161C16.7081 1 16.2321 1 15.28 1H3.72C2.76791 1 2.29187 1 1.92822 1.23161C1.60834 1.43534 1.34827 1.76043 1.18529 2.16027C1 2.61483 1 3.20989 1 4.4V14.6C1 15.7901 1 16.3852 1.18529 16.8397C1.34827 17.2396 1.60834 17.5647 1.92822 17.7684C2.29187 18 2.76791 18 3.72 18Z" stroke="#DF080A" stroke-width="1.1" stroke-linecap="round"/>
</svg>
