<svg width="22" height="17" viewBox="0 0 22 17" fill="none" xmlns="http://www.w3.org/2000/svg">
<path d="M13 13.5V1.5C13 1.22386 12.7761 1 12.5 1H1.5C1.22386 1 1 1.22386 1 1.5V13.5C1 13.7761 1.22386 14 1.5 14H3M13 13.5C13 13.7761 12.7761 14 12.5 14H7M13 13.5V4.5C13 4.22386 13.2239 4 13.5 4H16.7929C16.9255 4 17.0527 4.05268 17.1464 4.14645L20.8536 7.85355C20.9473 7.94732 21 8.0745 21 8.20711V13.5C21 13.7761 20.7761 14 20.5 14H19M13 13.5C13 13.7761 13.2239 14 13.5 14H15M3 14C3 15.1046 3.89543 16 5 16C6.10457 16 7 15.1046 7 14M3 14C3 12.8954 3.89543 12 5 12C6.10457 12 7 12.8954 7 14M15 14C15 15.1046 15.8954 16 17 16C18.1046 16 19 15.1046 19 14M15 14C15 12.8954 15.8954 12 17 12C18.1046 12 19 12.8954 19 14" stroke="#DF080A" stroke-width="1.1"/>
</svg>
