<svg width="21" height="15" viewBox="0 0 21 15" fill="none" xmlns="http://www.w3.org/2000/svg">
<path d="M0 0V1.36364H12.4688V11.5909H8.42871C8.13647 10.419 7.12134 9.54545 5.90625 9.54545C4.69116 9.54545 3.67603 10.419 3.38379 11.5909H2.625V8.18182H1.3125V12.9545H3.38379C3.67603 14.1264 4.69116 15 5.90625 15C7.12134 15 8.13647 14.1264 8.42871 12.9545H13.8838C14.176 14.1264 15.1912 15 16.4062 15C17.6213 15 18.6365 14.1264 18.9287 12.9545H21V7.39347L20.959 7.28693L19.6465 3.19602L19.5029 2.72727H13.7812V0H0ZM0.65625 2.72727V4.09091H6.5625V2.72727H0.65625ZM13.7812 4.09091H18.5596L19.6875 7.58523V11.5909H18.9287C18.6365 10.419 17.6213 9.54545 16.4062 9.54545C15.1912 9.54545 14.176 10.419 13.8838 11.5909H13.7812V4.09091ZM1.3125 5.45455V6.81818H5.25V5.45455H1.3125ZM5.90625 10.9091C6.6394 10.9091 7.21875 11.511 7.21875 12.2727C7.21875 13.0344 6.6394 13.6364 5.90625 13.6364C5.1731 13.6364 4.59375 13.0344 4.59375 12.2727C4.59375 11.511 5.1731 10.9091 5.90625 10.9091ZM16.4062 10.9091C17.1394 10.9091 17.7188 11.511 17.7188 12.2727C17.7188 13.0344 17.1394 13.6364 16.4062 13.6364C15.6731 13.6364 15.0938 13.0344 15.0938 12.2727C15.0938 11.511 15.6731 10.9091 16.4062 10.9091Z" fill="black"/>
</svg>
